<?xml version="1.0" standalone="no"?>
<!DOCTYPE svg PUBLIC "-//W3C//DTD SVG 20010904//EN"
 "http://www.w3.org/TR/2001/REC-SVG-20010904/DTD/svg10.dtd">
<svg version="1.0" xmlns="http://www.w3.org/2000/svg"
 width="96.000000pt" height="96.000000pt" viewBox="0 0 96.000000 96.000000"
 preserveAspectRatio="xMidYMid meet">
<g transform="translate(0.000000,96.000000) scale(0.100000,-0.100000)"
fill="#000000" stroke="none">
<path d="M220 878 c-53 -9 -102 -46 -125 -95 -16 -33 -18 -68 -18 -303 0 -235
2 -270 18 -303 24 -51 73 -86 132 -95 62 -9 491 -7 529 2 43 11 89 50 109 93
16 33 18 68 18 303 0 235 -2 270 -18 303 -20 43 -66 82 -109 93 -38 9 -483 11
-536 2z m445 -139 c4 -5 7 -71 6 -147 0 -280 2 -260 -30 -293 -52 -52 -141
-30 -141 36 0 32 32 65 65 66 39 2 43 3 55 15 12 12 20 188 10 204 -3 5 -34 3
-70 -5 -36 -7 -83 -16 -104 -19 -22 -4 -42 -9 -45 -12 -3 -3 -7 -73 -7 -155
-1 -121 -5 -153 -18 -174 -31 -47 -95 -59 -133 -23 -46 43 -17 107 51 114 22
2 44 8 50 14 6 6 11 70 11 165 0 95 4 158 11 165 6 6 46 17 90 26 43 8 95 18
114 22 55 12 79 12 85 1z"/>
</g>
</svg>
