<?xml version="1.0" standalone="no"?>
<!DOCTYPE svg PUBLIC "-//W3C//DTD SVG 20010904//EN"
 "http://www.w3.org/TR/2001/REC-SVG-20010904/DTD/svg10.dtd">
<svg version="1.0" xmlns="http://www.w3.org/2000/svg"
 width="512.000000pt" height="512.000000pt" viewBox="0 0 512.000000 512.000000"
 preserveAspectRatio="xMidYMid meet">
<metadata>
Created by potrace 1.14, written by Peter Selinger 2001-2017
</metadata>
<g transform="translate(0.000000,512.000000) scale(0.100000,-0.100000)"
fill="#000000" stroke="none">
<path d="M858 5100 c-228 -48 -399 -139 -554 -296 -78 -79 -166 -205 -209
-299 -26 -58 -68 -189 -82 -257 -4 -18 -8 -764 -9 -1658 -3 -1782 -6 -1709 56
-1884 89 -251 262 -453 502 -585 73 -40 245 -97 323 -108 80 -11 3285 -10
3355 0 132 21 282 81 409 164 213 141 380 378 440 623 28 116 30 220 28 1800
l-3 1635 -21 75 c-31 107 -47 150 -88 232 -122 243 -346 437 -601 521 -175 58
-108 56 -1854 56 -1517 -1 -1610 -2 -1692 -19z m2970 -2222 l-3 -1413 -32 -68
c-34 -71 -109 -154 -167 -184 -90 -47 -128 -52 -339 -50 l-202 2 -68 33 c-38
19 -84 47 -102 64 -134 121 -169 325 -86 487 51 99 181 191 291 204 25 3 127
6 228 6 l182 1 0 735 c0 404 -3 735 -8 735 -4 0 -70 -11 -147 -24 -77 -14
-246 -43 -375 -65 -129 -23 -245 -43 -256 -45 -12 -2 -39 -7 -60 -10 -22 -4
-61 -11 -89 -16 -27 -5 -66 -12 -85 -15 -19 -2 -48 -7 -65 -10 -28 -5 -61 -10
-125 -21 -14 -3 -50 -9 -80 -15 -30 -5 -73 -12 -95 -15 -22 -3 -43 -9 -47 -13
-4 -4 -8 -451 -8 -993 -1 -935 -2 -989 -19 -1041 -28 -81 -46 -110 -99 -165
-101 -103 -172 -123 -432 -119 -195 3 -195 3 -262 34 -332 155 -304 630 45
742 52 17 78 19 285 20 l182 1 0 1139 0 1138 53 8 c28 5 59 10 67 11 8 1 94
16 190 33 96 17 191 34 210 37 19 3 46 7 60 10 14 2 39 6 55 9 17 3 80 14 141
25 61 11 129 22 150 25 21 4 46 8 54 10 8 3 33 7 55 10 41 6 136 22 285 50 38
7 392 67 415 70 34 6 86 15 190 34 55 11 103 20 108 20 4 1 6 -635 5 -1411z"/>
</g>
</svg>
